<svg width="24" height="24" viewBox="0 0 24 24" fill="none" xmlns="http://www.w3.org/2000/svg">
<path d="M23.457 0.551004C23.2566 0.351929 22.9855 0.240204 22.703 0.240204C22.4205 0.240204 22.1494 0.351929 21.949 0.551004L0.56 21.941C0.360621 22.1415 0.248703 22.4128 0.248703 22.6955C0.248703 22.9783 0.360621 23.2495 0.56 23.45C0.760407 23.6488 1.03124 23.7603 1.3135 23.7603C1.59576 23.7603 1.86659 23.6488 2.067 23.45L5.779 19.706C6.39033 20.066 7.032 20.3583 7.704 20.583L16.154 12.134C16.3061 11.9924 16.5072 11.9153 16.715 11.919C16.9228 11.9228 17.121 12.007 17.2679 12.1541C17.4148 12.3011 17.4989 12.4994 17.5025 12.7072C17.506 12.915 17.4288 13.116 17.287 13.268L9.597 21.033C10.041 21.093 10.4867 21.1213 10.934 21.118C18.756 21.108 23.634 12.635 19.714 5.866L19.683 5.813L23.426 2.059C23.6294 1.86281 23.7469 1.59413 23.7529 1.3116C23.7589 1.02907 23.6519 0.755648 23.457 0.551004ZM4.184 8.038C4.25794 7.96124 4.34644 7.89998 4.44433 7.85781C4.54222 7.81564 4.64753 7.79341 4.75411 7.79241C4.86069 7.79141 4.9664 7.81167 5.06507 7.85199C5.16373 7.89232 5.25336 7.95191 5.32873 8.02727C5.4041 8.10264 5.46369 8.19228 5.50401 8.29094C5.54434 8.3896 5.56459 8.49531 5.5636 8.60189C5.5626 8.70847 5.54036 8.81378 5.49819 8.91167C5.45602 9.00956 5.39477 9.09806 5.318 9.172L1.04 13.45C1.37 14.682 1.933 15.84 2.697 16.862L16.87 2.69C10.507 -1.846 1.62 2.205 0.872 9.982C0.842 10.296 0.826667 10.6107 0.826 10.926V11.428L4.184 8.038Z" fill="url(#paint0_linear_12_4)"/>
<defs>
<linearGradient id="paint0_linear_12_4" x1="12.0009" y1="0.240204" x2="12.0009" y2="23.7603" gradientUnits="userSpaceOnUse">
<stop stop-color="#4D6EFF"/>
<stop offset="1" stop-color="#A47EFD"/>
</linearGradient>
</defs>
</svg>
